<svg xmlns="http://www.w3.org/2000/svg" width="500" height="500"><path fill="#6364ff" d="M143.372 0C63.946 0 0 63.946 0 143.372v213.256C0 436.054 63.946 500 143.372 500H500V143.372C500 63.946 436.054 0 356.628 0Z"/><path fill="#fff" d="M106.102 324.39a81.453 81.698 0 0 0-81.453 81.7 81.453 81.698 0 0 0 81.453 81.697 81.453 81.698 0 0 0 81.453-81.698 81.453 81.698 0 0 0-81.453-81.698m73.055-293.924a96.397 96.113 81.82 0 0-34.042 15.754A96.397 96.113 81.82 0 0 124 180.866l190.346 267.207a96.397 96.113 81.82 0 0 134.283 21.29 96.397 96.113 81.82 0 0 21.115-134.648L279.397 67.507a96.397 96.113 81.82 0 0-100.24-37.04"/></svg>